<?xml version="1.0" encoding="utf-8"?>
<svg width="159.5px" height="96.364624px" viewBox="0 0 159.5 96.364624" version="1.1" xmlns:xlink="http://www.w3.org/1999/xlink" xmlns="http://www.w3.org/2000/svg">
  <path d="M79.75 0C85.919 0 91.8354 2.45065 96.1976 6.81281C100.56 11.175 103.01 17.0914 103.01 23.2604C103.01 29.4295 100.56 35.3458 96.1976 39.708C91.8354 44.0702 85.919 46.5208 79.75 46.5208C73.581 46.5208 67.6646 44.0702 63.3024 39.708C58.9402 35.3458 56.4896 29.4295 56.4896 23.2604C56.4896 17.0914 58.9402 11.175 63.3024 6.81281C67.6646 2.45065 73.581 0 79.75 0L79.75 0ZM33.2292 16.6146C36.9508 16.6146 40.4067 17.6115 43.3973 19.4058C42.4004 28.9094 45.1917 38.3465 50.9071 45.7233C47.5842 52.1033 40.9383 56.4896 33.2292 56.4896C27.9414 56.4896 22.8702 54.389 19.1312 50.65C15.3922 46.911 13.2917 41.8398 13.2917 36.5521C13.2917 31.2643 15.3922 26.1931 19.1312 22.4541C22.8702 18.7151 27.9414 16.6146 33.2292 16.6146L33.2292 16.6146ZM126.271 16.6146C131.559 16.6146 136.63 18.7151 140.369 22.4541C144.108 26.1931 146.208 31.2643 146.208 36.5521C146.208 41.8398 144.108 46.911 140.369 50.65C136.63 54.389 131.559 56.4896 126.271 56.4896C118.562 56.4896 111.916 52.1033 108.593 45.7233C114.308 38.3465 117.1 28.9094 116.103 19.4058C119.093 17.6115 122.549 16.6146 126.271 16.6146L126.271 16.6146ZM36.5521 84.7344C36.5521 70.9775 55.8915 59.8125 79.75 59.8125C103.609 59.8125 122.948 70.9775 122.948 84.7344L122.948 96.3646L36.5521 96.3646L36.5521 84.7344L36.5521 84.7344ZM0 96.3646L0 86.3958C0 77.1581 12.5606 69.3825 29.574 67.1229C25.6529 71.6421 23.2604 77.8892 23.2604 84.7344L23.2604 96.3646L0 96.3646L0 96.3646ZM159.5 96.3646L136.24 96.3646L136.24 84.7344C136.24 77.8892 133.847 71.6421 129.926 67.1229C146.939 69.3825 159.5 77.1581 159.5 86.3958L159.5 96.3646L159.5 96.3646Z" id="Vector" fill="#2A2A2A" fill-rule="evenodd" stroke="none" />
</svg>